<svg version="1.2" xmlns="http://www.w3.org/2000/svg" viewBox="0 0 116 72" width="116" height="72">
	<title>Iconos Landing(1)-ai</title>
	<g id="_Artboards_">
	</g>
	<g id="Carrusel">
		<g id="&lt;Group&gt;">
			<g id="&lt;Group&gt;">
				<g id="&lt;Group&gt;">
					<g id="&lt;Group&gt;">
						<g id="&lt;Group&gt;">
							<g id="&lt;Group&gt;">
								<g id="&lt;Group&gt;">
								</g>
							</g>
						</g>
						<g id="&lt;Group&gt;">
							<g id="&lt;Group&gt;">
								<g id="&lt;Group&gt;">
								</g>
							</g>
						</g>
					</g>
				</g>
			</g>
		</g>
		<g id="&lt;Group&gt;">
			<g id="&lt;Group&gt;">
				<g id="&lt;Group&gt;">
					<g id="&lt;Group&gt;">
						<g id="&lt;Group&gt;">
							<g id="&lt;Group&gt;">
								<g id="&lt;Group&gt;">
									<path id="&lt;Path&gt;" class="s0" d="m938.8 66.3c8.2-13 12.4-28.1 11.8-43.7-1.7-43.6-39.8-77.4-84.1-73.6-40.1 3.5-71.2 37.4-70.8 77.4 0.2 16.4 5.6 32 15.3 44.9 0.7 1 0.7 2.3-0.1 3.2l-5.4 6.5c-1.1 1.3-3.1 1.3-4.1 0-13.6-17.3-20.5-39.1-19-61.8 2.9-41.8 35.2-76.6 76.9-82.8 3.4-0.5 6.9-0.9 10.3-1 50.2-1.9 92.5 36.9 94.5 86.7 0.8 19.1-4.6 37.6-15 53.1-0.9 1.4-2.9 1.6-4 0.4l-6-6.1c-0.8-0.9-0.9-2.2-0.3-3.2z"/>
								</g>
							</g>
						</g>
						<g id="&lt;Group&gt;">
							<g id="&lt;Group&gt;">
								<g id="&lt;Group&gt;">
									<path id="&lt;Path&gt;" class="s0" d="m917 43.2c2.1-5.6 3-11.6 2.8-17.6-0.8-19.3-13.7-36.2-32.3-42.1-10.4-3.4-21.8-2.9-31.9 1.2-18 7.4-29.6 25.3-28.9 44.6 0.3 6 1.7 11.8 4.2 17.3 0.5 1 0.4 2.2-0.4 3.1l-6.5 7.8c-1.3 1.6-3.9 1.3-4.9-0.5-4.6-8.3-7.3-17.4-7.6-27.1-1.2-28.9 18.5-54.9 46.7-62 8.3-2 17-2.4 25.4-1 28.7 4.9 50.3 29.3 51.5 58.2 0.4 9.6-1.5 19-5.5 27.6-0.9 1.9-3.4 2.4-4.9 0.9l-7.1-7.3c-0.8-0.8-1-2-0.6-3.1z"/>
								</g>
							</g>
						</g>
					</g>
				</g>
			</g>
			<path id="&lt;Path&gt;" class="s0" d="m927.9 113.2c0.3 7.3-2.7 14.1-7.8 19l-0.1 0.4h-0.3c-4.9 4.7-11.9 4.5-19.6 4.8-7.7 0.3-14.5-1.6-18.2-3.7 0 0-4.6-2.2-5.4-3-1.1-1.1-4-3-7.5-5.1-1.2-0.6-3.7-2.9-4.8-3.5-5.8-5.6-15.1-16.2-19.2-21-2.4-2.8-5.5-3.9-7.3-5-1.4-0.8-2.8-1.6-3.6-2.9-1.8-2.8-0.1-6.8 2.3-9.3q0.6-0.6 1.2-1.1 1.8-1.5 5.7-1.2c4.8 0.3 12.2 3 16.3 7.2 1.8 1.8 3.7 3.7 5.5 5.3 0 0-0.7-19.8-0.5-20.7l-0.2-28.5-0.1-10.3c0-2.6 0.1-5.2 1.9-7.2 1.7-1.9 4.3-3.2 6.9-3.2 4.7-0.1 8.5 3.3 9 7.8 0.1 4.2 0.4 8.4 0.5 12.6l0.9 21.5c1.6-2.1 3.9-3.7 7.1-4.1 4.2-0.5 7.4 1.1 9.1 4.3 1.6-1.1 4.1-2.4 7.9-1.9 3.2 0.5 5.4 2.4 6.3 5.5h0.2 0.4c1.9-0.9 4-1.3 6.4-0.6 4.9 1.6 5.6 7.3 5.6 9l1 25.2c0.1 1.3 0.3 7.9 0.4 9.7z"/>
			<path id="&lt;Path&gt;" class="s0" d="m894.7 25.2c0.3 7-1.9 13.4-6.7 17.4l-0.2-9.3q0-1.8-0.4-3.4c-1.6-6.4-7.4-11.1-14.3-11-4.6 0-8.7 2.2-11.3 5.5-2 2.5-3.2 5.6-3.2 9.1l0.1 9c-4.3-3.8-6.6-9.3-6.9-15.7-0.5-11.7 8.8-21.6 20.6-22.1 11.9-0.4 21.8 8.7 22.3 20.5z"/>
		</g>
		<g id="&lt;Group&gt;">
			<g id="&lt;Group&gt;">
				<path id="&lt;Path&gt;" class="s1" d="m25 58.5q0-1.1 0.6-2.1 0 0.1 0 0.1v-18l34.6 21 35.2-21v16.7c0.4 2 0.6 2.6 0.6 3.3 0 6.4-15.9 11.5-35.5 11.5-19.6 0-35.5-5.1-35.5-11.5z"/>
				<path id="&lt;Path&gt;" class="s1" d="m60.4 52.9l-54.2-32.8 54.4-17.4 54.2 17.1z"/>
				<path id="&lt;Path&gt;" class="s1" d="m6.6 66.9l-3.2-10.5 3.2-36.3 3 36.3z"/>
			</g>
		</g>
		<g id="&lt;Group&gt;">
			<path id="&lt;Path&gt;" class="s1" d="m643.7 52.2q-0.2-0.4-0.5-0.7 0.3 0.3 0.5 0.7z"/>
			<path id="&lt;Path&gt;" class="s1" d="m642.4 24.3c6-8.1 15.6-13.3 26.3-13.3 14.4 0 26.9 9.2 31.3 22.8 0.4 1.4-0.4 2.8-1.7 3.2-1.3 0.4-2.7-0.3-3.1-1.7-3.7-11.5-14.3-19.3-26.5-19.3-9.1 0-17.2 4.4-22.3 11.3q-1.8-1.8-4-3z"/>
			<path id="&lt;Path&gt;" class="s1" d="m700.1 53c-4.1 13.8-17 23.5-31.4 23.5-10.4 0-19.7-5-25.7-12.6q1-0.5 1.9-1.1 1.1-0.8 2.1-1.8c5.1 6.4 13 10.5 21.7 10.5 12.2 0 23.2-8.2 26.6-19.9 0.4-1.3 1.8-2.1 3.1-1.7 1.4 0.4 2.1 1.8 1.7 3.1z"/>
			<path id="&lt;Path&gt;" class="s1" d="m543.8 30.4q-0.4-3.3-3.3-5.6-2.8-2.2-6.6-2.2-6.2 0-9.2 4.4-3 4.4-3 11 0 6.3 3 10.7 3 4.4 9.2 4.4 4.5 0 7.1-2.7 2.6-2.7 3.2-7.4h9.6q-0.7 8.5-6.1 13.5-5.4 5-13.8 5-10.2 0-16.2-6.7-6-6.7-6-16.8 0-10.3 6-17.1 6-6.7 16.2-6.7 7.8 0 13.2 4.3 5.5 4.3 6.4 11.9z"/>
			<path id="&lt;Compound Path&gt;" fill-rule="evenodd" class="s1" d="m567.1 46.2q0 4.2 2.1 6.3 2 2 5.9 2 2.6 0 4.6-1.3 2.1-1.3 2.5-3h7.9q-1.8 5.8-5.7 8.5-3.8 2.6-9.6 2.6-7.7 0-12.2-4.8-4.5-4.7-4.5-12.4 0-7.5 4.6-12.4 4.7-4.9 12.1-4.9 7.8 0 11.8 5.6 4.1 5.6 4.1 13.8zm14.6-5.7q-0.6-3.6-2.3-5.2-1.6-1.7-4.8-1.7-3.8 0-5.7 2.2-1.8 2.2-1.8 4.7z"/>
			<path id="&lt;Path&gt;" class="s1" d="m598.7 23.6h-13.5v-8.3h37v8.3h-13.5v36.8h-10z"/>
			<path id="&lt;Compound Path&gt;" fill-rule="evenodd" class="s1" d="m624.7 46.2q0 4.2 2.1 6.3 2.1 2 5.9 2 2.6 0 4.7-1.3 2-1.3 2.4-3h7.9q-1.8 5.8-5.7 8.5-3.8 2.6-9.6 2.6-7.6 0-12.2-4.8-4.5-4.7-4.5-12.4 0-7.5 4.6-12.4 4.7-4.9 12.1-4.9 7.8 0 11.9 5.6 4 5.6 4 13.8zm14.6-5.7q-0.6-3.6-2.2-5.2-1.7-1.7-4.9-1.7-3.8 0-5.6 2.2-1.9 2.2-1.9 4.7z"/>
			<path id="&lt;Path&gt;" class="s1" d="m684.7 49.3q-1.1 5.4-4.8 8.5-4.2 3.5-10.7 3.5-7.5 0-12-4.7-4.6-4.6-4.6-12.1 0-7.7 4.5-12.7 4.5-5 12.2-5 6.4 0 10.9 3.2 4.1 3 4.5 8.2h-9q-0.6-2-1.9-3.2-1.7-1.4-4.5-1.4-3.9 0-5.8 3.2-1.9 3.2-1.9 7.4 0 4.2 1.8 7.3 1.8 3.1 5.7 3 3 0.1 4.9-1.7 1.4-1.4 2-3.5z"/>
			<path id="&lt;Path&gt;" class="s1" d="m703.9 46.2h-14.5c-1.4 0-2.5-1.1-2.5-2.5 0-1.4 1.1-2.5 2.5-2.5h14.5c1.4 0 2.5 1.1 2.5 2.5 0 1.4-1.1 2.5-2.5 2.5z"/>
			<path id="&lt;Path&gt;" class="s1" d="m643.7 52.2q-0.2-0.4-0.5-0.7 0.3 0.3 0.5 0.7z"/>
			<path id="&lt;Path&gt;" class="s1" d="m642.4 24.3c6-8.1 15.6-13.3 26.3-13.3 14.4 0 26.9 9.2 31.3 22.8 0.4 1.4-0.4 2.8-1.7 3.2-1.3 0.4-2.7-0.3-3.1-1.7-3.7-11.5-14.3-19.3-26.5-19.3-9.1 0-17.2 4.4-22.3 11.3q-1.8-1.8-4-3z"/>
			<path id="&lt;Path&gt;" class="s1" d="m700.1 53c-4.1 13.8-17 23.5-31.4 23.5-10.4 0-19.7-5-25.7-12.6q1-0.5 1.9-1.1 1.1-0.8 2.1-1.8c5.1 6.4 13 10.5 21.7 10.5 12.2 0 23.2-8.2 26.6-19.9 0.4-1.3 1.8-2.1 3.1-1.7 1.4 0.4 2.1 1.8 1.7 3.1z"/>
			<path id="&lt;Path&gt;" class="s1" d="m543.8 30.4q-0.4-3.3-3.3-5.6-2.8-2.2-6.6-2.2-6.2 0-9.2 4.4-3 4.4-3 11 0 6.3 3 10.7 3 4.4 9.2 4.4 4.5 0 7.1-2.7 2.6-2.7 3.2-7.4h9.6q-0.7 8.5-6.1 13.5-5.4 5-13.8 5-10.2 0-16.2-6.7-6-6.7-6-16.8 0-10.3 6-17.1 6-6.7 16.2-6.7 7.8 0 13.2 4.3 5.5 4.3 6.4 11.9z"/>
			<path id="&lt;Compound Path&gt;" fill-rule="evenodd" class="s1" d="m567.1 46.2q0 4.2 2.1 6.3 2 2 5.9 2 2.6 0 4.6-1.3 2.1-1.3 2.5-3h7.9q-1.8 5.8-5.7 8.5-3.8 2.6-9.6 2.6-7.7 0-12.2-4.8-4.5-4.7-4.5-12.4 0-7.5 4.6-12.4 4.7-4.9 12.1-4.9 7.8 0 11.8 5.6 4.1 5.6 4.1 13.8zm14.6-5.7q-0.6-3.6-2.3-5.2-1.6-1.7-4.8-1.7-3.8 0-5.7 2.2-1.8 2.2-1.8 4.7z"/>
			<path id="&lt;Path&gt;" class="s1" d="m598.7 23.6h-13.5v-8.3h37v8.3h-13.5v36.8h-10z"/>
			<path id="&lt;Compound Path&gt;" fill-rule="evenodd" class="s1" d="m624.7 46.2q0 4.2 2.1 6.3 2.1 2 5.9 2 2.6 0 4.7-1.3 2-1.3 2.4-3h7.9q-1.8 5.8-5.7 8.5-3.8 2.6-9.6 2.6-7.6 0-12.2-4.8-4.5-4.7-4.5-12.4 0-7.5 4.6-12.4 4.7-4.9 12.1-4.9 7.8 0 11.9 5.6 4 5.6 4 13.8zm14.6-5.7q-0.6-3.6-2.2-5.2-1.7-1.7-4.9-1.7-3.8 0-5.6 2.2-1.9 2.2-1.9 4.7z"/>
			<path id="&lt;Path&gt;" class="s1" d="m684.7 49.3q-1.1 5.4-4.8 8.5-4.2 3.5-10.7 3.5-7.5 0-12-4.7-4.6-4.6-4.6-12.1 0-7.7 4.5-12.7 4.5-5 12.2-5 6.4 0 10.9 3.2 4.1 3 4.5 8.2h-9q-0.6-2-1.9-3.2-1.7-1.4-4.5-1.4-3.9 0-5.8 3.2-1.9 3.2-1.9 7.4 0 4.2 1.8 7.3 1.8 3.1 5.7 3 3 0.1 4.9-1.7 1.4-1.4 2-3.5z"/>
			<path id="&lt;Path&gt;" class="s1" d="m703.9 46.2h-14.5c-1.4 0-2.5-1.1-2.5-2.5 0-1.4 1.1-2.5 2.5-2.5h14.5c1.4 0 2.5 1.1 2.5 2.5 0 1.4-1.1 2.5-2.5 2.5z"/>
			<path id="&lt;Path&gt;" class="s1" d="m652.6-3.7q0.2 0.6 0.3 1.3-0.1-0.7-0.3-1.3z"/>
			<path id="&lt;Path&gt;" class="s1" d="m658.4 12q-0.2 0.2-0.4 0.4 0.2-0.2 0.4-0.4z"/>
			<path id="&lt;Path&gt;" class="s1" d="m652.6-3.7q0.2 0.6 0.3 1.3-0.1-0.7-0.3-1.3z"/>
			<path id="&lt;Path&gt;" class="s1" d="m658.4 12q-0.2 0.2-0.4 0.4 0.2-0.2 0.4-0.4z"/>
		</g>
		<g id="&lt;Group&gt;">
			<g id="&lt;Group&gt;">
				<path id="&lt;Path&gt;" class="s1" d="m347.7 6c0 11.2-9.1 20.3-20.3 20.3-11.2 0-20.3-9.1-20.3-20.3 0-11.3 9.1-20.4 20.3-20.4 11.2 0 20.3 9.1 20.3 20.4z"/>
				<path id="&lt;Path&gt;" class="s1" d="m332.3 66.9c0 2.9-2.3 5.3-5.2 5.3-2.9 0-5.3-2.4-5.3-5.3 0-2.9 2.4-5.3 5.3-5.3 2.9 0 5.2 2.4 5.2 5.3z"/>
				<path id="&lt;Compound Path&gt;" fill-rule="evenodd" class="s1" d="m356.3 66.3v5h5.9l-5.9 15.8h-58.7l-5.9-15.8h5.9v-5h-14.9v-5.5h10.1v-8.5c0-12.7 10.3-22.9 23-22.9l11.3 10.3 11-10.3c12.7 0 23 10.2 23 22.9v8.5h10.4v5.5zm-3.6-17.6h-51.6v34.9h51.6z"/>
			</g>
		</g>
		<g id="&lt;Group&gt;">
			<g id="&lt;Group&gt;">
				<g id="&lt;Group&gt;">
					<path id="&lt;Path&gt;" class="s1" d="m-250.2 4.1l31.6 10.9c1.4 0.8 2.5 3.1 2.5 5v46.4c0 1.9-1.1 2.8-2.5 1.9l-31.6-10.9c-1.4-0.8-2.5-3.1-2.5-5v-46.4c0-1.9 1.1-2.8 2.5-1.9z"/>
					<path id="&lt;Path&gt;" class="s1" d="m-173.5 4.7v46.4c0 1.9-1.1 4.2-2.5 5l-31.5 12.6c-1.5 0.8-2.6-0.1-2.6-2v-44.8c0-1.9 1.1-4.1 2.6-5l31.5-14.1c1.4-0.9 2.5 0 2.5 1.9z"/>
				</g>
				<path id="&lt;Path&gt;" class="s1" d="m-256.8 12v43c0 3.1 1.5 7.2 4.4 8.2l20.6 7.1-22-3.9c-4-0.7-8.3-1.4-8.3-6.7v-48.6c0-6.3 5.3-7.5 5.3 0.9z"/>
				<path id="&lt;Path&gt;" class="s1" d="m-164.2 9.5v50.2c0 5.3-4.4 6-8.4 6.7l-21.9 3.9 20.6-7.1c2.9-1 4.3-5.1 4.3-8.2v-44.6c0-8.4 5.4-7.2 5.4-0.9z"/>
			</g>
			<path id="&lt;Compound Path&gt;" fill-rule="evenodd" class="s2" d="m-248.8 15.5c-0.3-0.1-0.4-0.5-0.2-0.7 0.2-0.3 0.5-0.4 0.8-0.2l28.2 10.6c0.2 0.2 0.3 0.5 0.2 0.8-0.2 0.2-0.5 0.3-0.8 0.2zm42.1 12.2c-0.3 0.2-0.6 0.1-0.8-0.2-0.2-0.3-0.1-0.6 0.2-0.8l28.2-13.8c0.3-0.2 0.6-0.1 0.8 0.2 0.1 0.2 0.1 0.6-0.2 0.7zm28.2-3.7l-28.2 13.9c-0.3 0.1-0.6 0-0.8-0.2-0.1-0.3 0-0.6 0.2-0.8l28.2-13.9c0.3-0.1 0.6 0 0.8 0.2 0.2 0.3 0.1 0.6-0.2 0.8zm-28.2 24c-0.3 0.1-0.6 0-0.8-0.2-0.1-0.3 0-0.6 0.2-0.8l28.2-13.8c0.3-0.2 0.6-0.1 0.8 0.1 0.2 0.3 0.1 0.6-0.2 0.8zm28.2-3.7l-28.2 13.8c-0.2 0.2-0.6 0.1-0.7-0.2-0.2-0.2-0.1-0.6 0.1-0.7l28.3-13.9c0.2-0.1 0.6-0.1 0.7 0.2 0.2 0.3 0.1 0.6-0.2 0.8zm-70.2 1.6c-0.3-0.2-0.4-0.5-0.2-0.8 0.1-0.3 0.5-0.3 0.7-0.2l28.3 10.7c0.2 0.1 0.3 0.5 0.2 0.7-0.2 0.3-0.5 0.4-0.8 0.2zm-0.2-10.9c0.2-0.2 0.5-0.3 0.8-0.2l28.2 10.7c0.3 0.1 0.3 0.5 0.2 0.7-0.2 0.3-0.5 0.4-0.8 0.2l-28.2-10.6c-0.3-0.2-0.4-0.5-0.2-0.8zm0-10.1c0.2-0.2 0.5-0.3 0.8-0.2l28.2 10.7c0.3 0.1 0.3 0.5 0.2 0.7-0.2 0.3-0.5 0.4-0.8 0.2l-28.2-10.6c-0.3-0.2-0.4-0.5-0.2-0.8z"/>
		</g>
	</g>
	<g id="Título">
	</g>
</svg>